<?xml version="1.0" encoding="utf-8"?>
<!-- Generator: Adobe Illustrator 24.0.1, SVG Export Plug-In . SVG Version: 6.00 Build 0)  -->
<svg version="1.1" id="cross-15" xmlns="http://www.w3.org/2000/svg" xmlns:xlink="http://www.w3.org/1999/xlink" x="0px" y="0px"
	 width="24px" height="24px" viewBox="0 0 24 24" style="enable-background:new 0 0 24 24;" xml:space="preserve">
<rect fill="none" width="24" height="24"/>
<path d="M6,4.3l6,6l6-6C18.2,4.1,18.5,4,18.8,4C19.4,4,20,4.6,20,5.2c0,0.3-0.1,0.6-0.3,0.8l-6,6l6,6c0.2,0.2,0.3,0.5,0.3,0.8
	c0,0.7-0.6,1.2-1.2,1.2c-0.3,0-0.6-0.1-0.8-0.3l-5.9-6l-6,6C5.8,19.9,5.5,20,5.2,20C4.6,20,4,19.4,4,18.8c0-0.3,0.1-0.6,0.3-0.8l6-6
	l-6-6C4.1,5.8,4,5.5,4,5.2C4,4.6,4.6,4,5.2,4C5.5,4,5.8,4.1,6,4.3z"/>
</svg>
