<?xml version="1.0" encoding="utf-8"?>
<!-- Generator: Adobe Illustrator 24.0.1, SVG Export Plug-In . SVG Version: 6.00 Build 0)  -->
<svg version="1.1" id="Layer_1" xmlns="http://www.w3.org/2000/svg" xmlns:xlink="http://www.w3.org/1999/xlink" x="0px" y="0px"
	 width="24px" height="24px" viewBox="0 0 24 24" style="enable-background:new 0 0 24 24;" xml:space="preserve">
<rect fill="none" width="24" height="24"/>
<path d="M4.5,7h15C19.8,7,20,6.8,20,6.5S19.8,6,19.5,6h-15C4.2,6,4,6.2,4,6.5S4.2,7,4.5,7z M4.5,18h15
	c0.3,0,0.5-0.2,0.5-0.5S19.8,17,19.5,17h-15C4.2,17,4,17.2,4,17.5S4.2,18,4.5,18z M4.5,12.5h15c0.3,0,0.5-0.2,0.5-0.5
	s-0.2-0.5-0.5-0.5h-15C4.2,11.5,4,11.7,4,12S4.2,12.5,4.5,12.5z"/>
</svg>
